name analog
datacolumns 19
datarows 23
range 0.0 0.011
endheader
time	ground_force_vx	ground_force_vy	ground_force_vz	ground_force_px	ground_force_py	ground_force_pz	l_ground_force_vx	l_ground_force_vy	l_ground_force_vz	l_ground_force_px	l_ground_force_py	l_ground_force_pz	ground_torque_x	ground_torque_y	ground_torque_z	l_ground_torque_x	l_ground_torque_y	l_ground_torque_z
0.0	-0.0	-0.0	-0.0	3.2125487327575684	20.184642791748047	-281.84527587890625	-2.129492282867432	-19.697031021118164	-365.2160034179688	-0.0	-0.0	-0.0	-0.0	-0.0	-0.0	97404.5078125	-19978.06640625	-1385.968017578125
0.0005	-0.0	-0.0	-0.0	3.2534422874450684	20.455974578857425	-280.7737121582031	-2.395191192626953	-19.91681861877441	-363.9938659667969	-0.0	-0.0	-0.0	-0.0	-0.0	-0.0	97579.578125	-20080.87109375	-1460.30029296875
0.001	-0.0	-0.0	-0.0	2.858492136001587	20.58537101745605	-281.4794616699219	-2.305767059326172	-19.91405487060547	-363.9807434082031	-0.0	-0.0	-0.0	-0.0	-0.0	-0.0	97284.015625	-20046.294921875	-1534.0384521484375
0.0015	-0.0	-0.0	-0.0	3.2143352031707764	20.098217010498047	-280.9628295898437	-2.395191192626953	-19.873214721679688	-363.8159790039063	-0.0	-0.0	-0.0	-0.0	-0.0	-0.0	97148.5546875	-19964.30078125	-1594.198486328125
0.002	-0.0	-0.0	-0.0	3.211578369140625	20.365537643432617	-280.22723388671875	-2.1748828887939453	-19.82675552368164	-364.68310546875	-0.0	-0.0	-0.0	-0.0	-0.0	-0.0	97443.296875	-19953.228515625	-1445.77978515625
0.0025	-0.0	-0.0	-0.0	3.34790587425232	20.32173156738281	-279.5386047363281	-1.995425820350647	-19.608543395996094	-364.1695861816406	-0.0	-0.0	-0.0	-0.0	-0.0	-0.0	97334.75	-19766.943359375	-1504.6234130859375
0.003	-0.0	-0.0	-0.0	3.211578369140625	20.36359596252441	-281.49871826171875	-2.215248107910156	-19.740524291992188	-365.5468444824219	-0.0	-0.0	-0.0	-0.0	-0.0	-0.0	97241.9375	-19924.546875	-1474.3271484375
0.0035	-0.0	-0.0	-0.0	3.169909954071045	19.826623916625977	-280.778076171875	-2.175537109375	-19.781238555908203	-366.2600708007813	-0.0	-0.0	-0.0	-0.0	-0.0	-0.0	97277.2265625	-19892.619140625	-1474.7049560546875
0.004	-0.0	-0.0	-0.0	3.209493637084961	20.10202980041504	-280.80279541015625	-1.9500956535339355	-19.7840576171875	-365.2308044433594	-0.0	-0.0	-0.0	-0.0	-0.0	-0.0	97144.6328125	-19909.962890625	-1505.219482421875
0.0045000000000000005	-0.0	-0.0	-0.0	3.0309314727783203	20.145694732666016	-280.9237976074219	-2.2177696228027344	-20.05069732666016	-364.88330078125	-0.0	-0.0	-0.0	-0.0	-0.0	-0.0	97389.546875	-19893.013671875	-1505.5477294921875
0.005	-0.0	-0.0	-0.0	3.2573742866516118	20.092958450317383	-280.6156005859375	-2.125385999679565	-19.517263412475582	-364.5360107421875	-0.0	-0.0	-0.0	-0.0	-0.0	-0.0	97129.3828125	-19921.0390625	-1413.9757080078125
0.0055	-0.0	-0.0	-0.0	3.084067821502685	20.10016632080078	-282.7155456542969	-2.263113260269165	-19.25609588623047	-365.0185852050781	-0.0	-0.0	-0.0	-0.0	-0.0	-0.0	97213.5703125	-19695.935546875	-1519.3665771484375
0.006	-0.0	-0.0	-0.0	3.214226722717285	19.784303665161133	-281.1312255859375	-2.2198715209960938	-19.46969985961914	-365.0256042480469	-0.0	-0.0	-0.0	-0.0	-0.0	-0.0	97164.0	-19809.970703125	-1580.1240234375
0.006500000000000001	-0.0	-0.0	-0.0	3.035961151123047	19.95960807800293	-280.42486572265625	-2.2609968185424805	-19.29941177368164	-364.5142822265625	-0.0	-0.0	-0.0	-0.0	-0.0	-0.0	97049.625	-19666.302734375	-1491.2213134765625
0.007	-0.0	-0.0	-0.0	3.0909528732299805	19.82712173461914	-281.6552124023437	-2.531832218170166	-19.519092559814453	-362.41937255859375	-0.0	-0.0	-0.0	-0.0	-0.0	-0.0	97028.0625	-19565.509765625	-1502.8001708984375
0.0075	-0.0	-0.0	-0.0	3.174689531326294	19.9775447845459	-282.5439453125	-2.481364250183105	-19.87743186950684	-363.8259887695313	-0.0	-0.0	-0.0	-0.0	-0.0	-0.0	96916.7890625	-19534.15625	-1519.6798095703125
0.008	-0.0	-0.0	-0.0	2.845097064971924	19.74720001220703	-281.7994689941406	-2.615636348724365	-19.385284423828125	-363.9853210449219	-0.0	-0.0	-0.0	-0.0	-0.0	-0.0	97019.6953125	-19652.73046875	-1531.36474609375
0.0085	-0.0	-0.0	-0.0	2.983520746231079	20.004749298095703	-280.5284423828125	-2.2177696228027344	-19.69852828979492	-364.1651611328125	-0.0	-0.0	-0.0	-0.0	-0.0	-0.0	96879.2421875	-19609.6875	-1576.8997802734375
0.009000000000000001	-0.0	-0.0	-0.0	2.986797332763672	19.829761505126957	-280.58062744140625	-2.472068548202514	-19.8326358795166	-362.0585632324219	-0.0	-0.0	-0.0	-0.0	-0.0	-0.0	96944.8125	-19502.375	-1563.6630859375
0.0095	-0.0	-0.0	-0.0	2.7655258178710938	20.10435676574707	-280.666259765625	-2.4044458866119385	-19.7840576171875	-364.5142822265625	-0.0	-0.0	-0.0	-0.0	-0.0	-0.0	97016.6796875	-19415.767578125	-1533.9176025390625
0.01	-0.0	-0.0	-0.0	2.614711046218872	19.87230491638184	-282.03662109375	-2.8355202674865723	-19.751134872436523	-362.7812194824219	-0.0	-0.0	-0.0	-0.0	-0.0	-0.0	97004.234375	-19375.712890625	-1655.0052490234375
0.0105	-0.0	-0.0	-0.0	2.9170398712158203	20.10087013244629	-280.6092529296875	-2.703989267349243	-19.967430114746094	-363.634765625	-0.0	-0.0	-0.0	-0.0	-0.0	-0.0	97024.109375	-19603.0234375	-1506.7239990234375
0.011	-0.0	-0.0	-0.0	2.718890905380249	19.95709800720215	-281.6690368652344	-2.6683332920074463	-20.045534133911133	-363.9974670410156	-0.0	-0.0	-0.0	-0.0	-0.0	-0.0	96759.4921875	-19521.75	-1581.5274658203125
